<svg width="34" height="29" viewBox="0 0 34 29" fill="none" xmlns="http://www.w3.org/2000/svg">
<g clip-path="url(#clip0_84_3)">
<path d="M23.8523 3.87861C28.7554 2.82894 33.2949 6.50244 33.2898 11.4582C33.2892 12.0322 33.2647 12.6007 33.1503 13.1693C32.6684 15.5627 30.9659 16.9966 28.5026 17.0786C26.5932 17.1421 24.7663 16.7042 22.9508 16.1944C20.366 15.4687 17.8585 14.4852 15.2411 13.8684C13.8279 13.5354 12.4053 13.3 10.9498 13.5982C10.8971 13.6091 10.831 13.5548 10.7027 13.5035C11.2624 13.0591 11.887 12.9626 12.5062 12.8655C14.446 12.5611 16.3507 12.8801 18.2547 13.2029C20.6519 13.6095 23.0036 14.2573 25.4176 14.57C26.4135 14.6991 27.406 14.8909 28.4269 14.689C29.9635 14.3852 30.5506 13.7771 30.7048 12.2128C31.0179 9.03504 28.5695 6.2453 25.3647 6.21647C23.8615 6.20295 22.5546 6.81367 21.4472 7.83962C21.116 8.14645 20.8142 8.49996 20.3924 8.67015C20.0814 8.5073 20.1242 8.22745 20.0835 7.99089C19.8125 6.41658 19.3051 4.96698 18.0093 3.91209C15.0081 1.46894 10.4888 2.46361 8.74387 5.95074C8.64558 6.14716 8.63204 6.40271 8.35247 6.54302C8.15733 6.30452 8.30981 6.07584 8.37503 5.86095C9.84836 1.00643 15.973 -0.65069 19.7906 2.77209C20.2876 3.21769 20.7771 3.68042 21.1118 4.26198C21.3586 4.69075 21.6209 4.78463 22.0567 4.5368C22.5978 4.22919 23.1913 4.04037 23.8523 3.87861Z" fill="black"/>
<path d="M3.45016 7.90525C5.08916 7.08708 6.67333 7.34296 8.23376 7.9609C8.9455 8.24276 9.68341 8.50764 10.3033 9.09C9.95025 9.26823 9.72955 9.05143 9.49726 8.95905C8.09048 8.39961 6.65927 8.01501 5.13293 8.36403C4.06517 8.60819 3.28675 9.23828 2.74286 10.1877C0.433288 14.2195 3.74627 18.6052 7.64998 18.5168C9.0944 18.4841 8.9951 18.309 9.00415 19.897C9.01224 21.3148 9.00585 22.7327 9.00585 24.2432C10.1238 23.8503 11.1224 23.4622 12.1438 23.1475C15.1881 22.2096 18.2824 21.7772 21.4553 22.3736C22.8435 22.6346 24.1555 23.1163 25.3732 23.839C25.5567 23.9479 25.8162 24.0004 25.8203 24.3583C25.0285 24.1811 24.2632 23.9625 23.4828 23.8437C20.6577 23.4134 17.9001 23.7887 15.1844 24.6043C12.3943 25.4422 9.76735 26.6321 7.3156 28.2083C7.09108 28.3526 6.88359 28.5581 6.56722 28.5329C6.34888 28.3013 6.44342 28.0117 6.44205 27.7523C6.43184 25.8216 6.40045 23.8898 6.45317 21.9604C6.47288 21.2393 6.25933 20.9322 5.55564 20.7049C0.809767 19.1723 -1.13564 13.7484 1.54741 9.63834C2.02196 8.9114 2.64333 8.34463 3.45016 7.90525Z" fill="black"/>
</g>
<defs>
<clipPath id="clip0_84_3">
<rect width="34" height="29" fill="white"/>
</clipPath>
</defs>
</svg>
